<?xml version="1.0" standalone="no"?>
<!DOCTYPE svg PUBLIC "-//W3C//DTD SVG 20010904//EN"
 "http://www.w3.org/TR/2001/REC-SVG-20010904/DTD/svg10.dtd">
<svg version="1.0" xmlns="http://www.w3.org/2000/svg"
 width="16.000000pt" height="16.000000pt" viewBox="0 0 16.000000 16.000000"
 preserveAspectRatio="xMidYMid meet">

<g transform="translate(0.000000,16.000000) scale(0.100000,-0.100000)"
fill="#FF0000" stroke="none">
<path d="M61 136 c-9 -10 -8 -16 4 -26 21 -17 51 6 34 26 -6 8 -15 14 -19 14
-4 0 -13 -6 -19 -14z"/>
<path d="M30 90 c0 -5 11 -22 25 -37 l25 -28 25 28 c14 15 25 32 25 37 0 10
-19 8 -37 -3 -7 -5 -19 -5 -25 0 -19 11 -38 13 -38 3z m68 -9 c16 12 16 12 0
-6 -18 -19 -18 -19 -35 0 -17 18 -17 18 0 6 14 -11 20 -11 35 0z"/>
</g>
</svg>
