<?xml version="1.0" standalone="no"?>
<!DOCTYPE svg PUBLIC "-//W3C//DTD SVG 20010904//EN"
 "http://www.w3.org/TR/2001/REC-SVG-20010904/DTD/svg10.dtd">
<svg version="1.0" xmlns="http://www.w3.org/2000/svg"
 width="268.000000pt" height="234.000000pt" viewBox="0 0 268.000000 234.000000"
 preserveAspectRatio="xMidYMid meet">

<g transform="translate(0.000000,234.000000) scale(0.100000,-0.100000)"
fill="#FF0000" stroke="none">
<path d="M1106 1891 c-98 -38 -175 -71 -170 -73 5 -3 41 -13 81 -22 79 -20 83
-24 83 -109 0 -62 19 -105 63 -144 61 -54 136 -66 209 -34 84 36 128 109 128
209 l0 59 38 11 c20 6 57 16 81 22 23 6 41 13 39 16 -6 6 -358 134 -366 134
-4 -1 -87 -32 -186 -69z"/>
<path d="M658 1691 c205 -143 366 -286 478 -424 36 -45 87 -126 113 -179 l48
-97 51 82 c158 258 397 513 580 618 28 17 52 32 52 34 0 3 -39 -9 -87 -26
-194 -69 -368 -175 -506 -308 l-92 -89 -90 87 c-131 127 -280 220 -487 305
-129 52 -139 52 -60 -3z"/>
<path d="M540 1626 c0 -3 11 -35 25 -71 37 -99 92 -306 133 -502 l37 -176 61
-13 c188 -38 384 -171 467 -315 12 -21 24 -39 27 -39 3 0 20 23 39 51 91 134
272 256 444 299 94 23 97 25 97 53 0 72 86 429 146 606 19 57 33 105 31 107
-5 6 -161 -86 -229 -136 -34 -25 -103 -85 -153 -135 -166 -164 -268 -324 -364
-570 -6 -15 -13 -5 -31 50 -69 209 -218 413 -433 588 -124 102 -297 220 -297
203z"/>
<path d="M1095 282 c-10 -26 -5 -33 11 -18 8 9 24 16 35 16 17 0 19 -8 19 -84
0 -58 -4 -86 -12 -89 -7 -3 9 -6 36 -6 43 -1 47 1 32 12 -14 10 -16 25 -14 87
3 74 4 75 31 78 15 2 27 -1 27 -7 0 -6 5 -11 10 -11 6 0 10 8 10 18 0 15 -11
17 -90 17 -66 0 -91 -4 -95 -13z"/>
<path d="M1418 283 c-8 -10 -27 -51 -42 -90 -15 -40 -35 -77 -44 -83 -13 -7
-8 -9 23 -10 27 0 35 3 26 9 -9 6 -11 18 -7 35 5 22 12 26 40 26 26 0 35 -5
40 -22 4 -15 0 -27 -11 -35 -14 -11 -9 -13 32 -13 45 0 47 1 33 18 -9 9 -28
54 -43 100 -14 45 -28 82 -29 82 -2 0 -10 -8 -18 -17z m22 -90 c0 -7 -11 -13
-25 -13 -29 0 -29 2 -13 48 l13 34 12 -28 c7 -16 12 -35 13 -41z"/>
<path d="M2059 288 c-9 -7 -26 -41 -39 -76 -12 -34 -31 -74 -42 -87 l-19 -25
38 0 c25 0 33 3 25 9 -8 4 -12 19 -10 32 2 20 9 24 38 24 29 0 36 -4 38 -24 2
-13 -2 -28 -10 -32 -8 -6 6 -9 37 -9 35 0 46 3 35 10 -8 5 -28 50 -45 100 -27
80 -32 89 -46 78z m20 -100 c1 -5 -10 -8 -24 -8 -28 0 -30 4 -13 51 l11 33 13
-34 c7 -19 13 -38 13 -42z"/>
<path d="M378 283 c17 -7 17 -169 0 -176 -7 -3 7 -5 32 -5 25 0 39 2 33 5 -9
3 -13 31 -13 89 0 77 2 84 20 84 44 0 49 -83 6 -100 -21 -9 -21 -9 2 -9 29 -1
62 33 62 63 0 42 -25 56 -93 55 -34 0 -56 -3 -49 -6z"/>
<path d="M609 261 c-61 -62 -19 -161 70 -161 55 0 90 32 98 87 5 37 2 45 -25
73 -42 42 -101 42 -143 1z m110 -7 c39 -50 18 -144 -32 -144 -42 0 -67 36 -67
96 0 70 59 99 99 48z"/>
<path d="M848 283 c8 -3 12 -30 12 -83 0 -65 -3 -81 -17 -89 -14 -8 -7 -10 32
-10 28 0 44 3 38 6 -15 6 -18 83 -3 83 5 0 15 -10 21 -22 22 -44 52 -68 83
-68 l31 0 -30 19 c-17 10 -39 30 -49 45 -16 25 -16 29 -2 45 19 21 21 52 4 69
-7 7 -38 12 -72 11 -34 0 -55 -3 -48 -6z m92 -18 c16 -19 -2 -65 -25 -65 -11
0 -15 11 -15 40 0 43 17 53 40 25z"/>
<path d="M1588 278 c7 -7 12 -41 12 -85 0 -58 -3 -74 -17 -82 -14 -8 -7 -10
32 -10 39 0 46 2 33 10 -12 6 -18 22 -18 44 0 44 19 46 43 5 28 -46 46 -60 80
-60 l32 0 -31 19 c-17 10 -41 33 -53 49 l-22 31 21 11 c26 14 26 56 1 70 -11
5 -43 10 -72 10 -41 0 -50 -3 -41 -12z m87 -38 c0 -29 -4 -36 -22 -38 -20 -3
-23 1 -23 31 0 38 7 49 30 45 10 -2 15 -15 15 -38z"/>
<path d="M1838 283 c8 -3 12 -30 12 -83 0 -65 -3 -81 -17 -89 -14 -8 -7 -10
32 -10 28 0 44 3 38 6 -9 3 -13 31 -13 88 0 57 4 85 13 88 6 3 -8 5 -33 5 -25
0 -39 -2 -32 -5z"/>
<path d="M2232 278 c-7 -7 -12 -25 -12 -40 0 -21 9 -34 35 -50 38 -25 47 -40
39 -63 -10 -26 -52 -18 -68 13 l-15 27 -1 -26 c0 -29 15 -39 60 -39 69 0 80
63 20 110 -47 37 -54 70 -15 70 14 0 28 -7 31 -15 9 -22 23 -18 17 5 -4 15
-14 20 -42 20 -20 0 -42 -5 -49 -12z"/>
</g>
</svg>
